# xmcd
#
# Track frame offsets:
#	150
#	19227
#	33784
#	48426
#	62672
#	79136
#	94473
#	107165
#	121971
#	136628
#	151528
#	166951
#	181943
#	196649
#	213117
#
# Disc length: 3110 seconds
#
# Revision: 0
# Processed by: cddbd v1.5PL3 Copyright (c) Steve Scherf et al.
# Submitted via: EasyCDDAExtractor 4.5.0.2
#
DISCID=b40c240f
DTITLE=хыдг - с' ацапы йаи киымы
DYEAR=1900
DGENRE=дглотийо
TTITLE0=ацйистяи
TTITLE1=еяыта думате
TTITLE2=хакассимо лоу омеияо
TTITLE3=нетяекахгйа
TTITLE4=амтяа лоу фгты суцмылг
TTITLE5=тапяапомайиа соу
TTITLE6=паяамолос дем еимаи о еяытас
TTITLE7=дыс лоу акгтг та йкеидиа лоу
TTITLE8=с' ацапы йаи киымы
TTITLE9=дем та пале йака
TTITLE10=целисе г писта
TTITLE11=дем яытгса ам еисаи памтяелемос
TTITLE12=лиа пкгцг
TTITLE13=лайедомисса
TTITLE14=лг бафеис леса соу йаглоус
EXTD=
EXTT0=
EXTT1=
EXTT2=
EXTT3=
EXTT4=
EXTT5=
EXTT6=
EXTT7=
EXTT8=
EXTT9=
EXTT10=
EXTT11=
EXTT12=
EXTT13=
EXTT14=
PLAYORDER=
